<?xml version="1.0" encoding="UTF-8"?>
<svg version="1.1" xmlns="http://www.w3.org/2000/svg" width="1280" height="2228">
<path d="M0 0 C422.4 0 844.8 0 1280 0 C1280 735.24 1280 1470.48 1280 2228 C857.6 2228 435.2 2228 0 2228 C0 1492.76 0 757.52 0 0 Z " fill="#0A0A0A" transform="translate(0,0)"/>
<path d="M0 0 C8.51385118 6.17000822 14.50116473 14.76879912 16.87890625 25.0625 C18.42945417 36.78240728 17.86098934 48.05197681 14.3125 59.33984375 C14.0340625 60.45617188 13.755625 61.5725 13.46875 62.72265625 C11.25376674 71.41073713 7.8477925 78.63704538 3.3125 86.33984375 C2.63362314 87.55759562 1.95658846 88.77637601 1.28125 89.99609375 C-3.70286769 98.8302734 -9.57855213 106.36663916 -16.37597656 113.87695312 C-18.02863691 115.72035238 -19.60268383 117.62556435 -21.1875 119.52734375 C-28.47624184 127.74025621 -36.69627025 134.56879582 -45.625 140.90234375 C-46.7075708 141.67143066 -46.7075708 141.67143066 -47.81201172 142.45605469 C-51.3254086 144.89351994 -54.59030427 146.9848025 -58.6875 148.33984375 C-55.30709178 144.24777064 -51.82034258 140.46363923 -48 136.77734375 C-41.93176202 130.75459481 -36.75281807 124.20894514 -31.6875 117.33984375 C-31.2646875 116.77201172 -30.841875 116.20417969 -30.40625 115.61914062 C-14.06771975 93.38342211 -1.67907958 65.36350132 -5.6875 37.33984375 C-8.44357279 25.69830714 -14.60894549 16.75802772 -24.6875 10.33984375 C-36.73785809 3.67988764 -50.25883029 2.76137414 -63.6875 5.33984375 C-60.13252329 0.8864626 -55.93374168 -0.23439503 -50.6875 -1.84765625 C-49.88054688 -2.10740234 -49.07359375 -2.36714844 -48.2421875 -2.63476562 C-32.92117848 -7.52686999 -14.09829501 -8.70897584 0 0 Z " fill="#F66E03" transform="translate(636.6875,998.66015625)"/>
<path d="M0 0 C4.62 0 9.24 0 14 0 C14 23.1 14 46.2 14 70 C3 70 3 70 -0.4609375 66.73046875 C-1.47054731 65.24137814 -2.44026364 63.72469574 -3.375 62.1875 C-3.90319336 61.38884521 -4.43138672 60.59019043 -4.97558594 59.76733398 C-6.09500206 58.07221343 -7.19952125 56.36717476 -8.29003906 54.65332031 C-10.03052161 51.95264008 -11.83953977 49.31332013 -13.6796875 46.6796875 C-18.31227431 40.04306037 -18.31227431 40.04306037 -20.515625 36.81640625 C-20.97227539 36.15068604 -21.42892578 35.48496582 -21.89941406 34.79907227 C-23 33 -23 33 -24 30 C-24.66 30 -25.32 30 -26 30 C-25.37968409 23.42465139 -23.85102717 17.33307408 -22 11 C-21.34 11 -20.68 11 -20 11 C-18.6953125 12.7734375 -18.6953125 12.7734375 -17.125 15.375 C-13.7189186 20.89270724 -10.17001064 26.29939349 -6.5625 31.6875 C-4.726875 34.430625 -2.89125 37.17375 -1 40 C-0.67 26.8 -0.34 13.6 0 0 Z " fill="#F4F4F4" transform="translate(676,1041)"/>
<path d="M0 0 C30 0 30 0 35 4 C38.33042151 7.50380571 40.75787502 10.54725012 41.5625 15.375 C40.8321043 20.08199452 39.52327916 24.49363248 38 29 C33.78540627 25.04881838 30.30274333 20.67620362 26.76953125 16.109375 C22.73971985 11.30562631 20.54652243 12.75465224 13 12 C13.33 26.52 13.66 41.04 14 56 C20.93 56.495 20.93 56.495 28 57 C26 62 26 62 21 69 C14.07 69 7.14 69 0 69 C0 46.23 0 23.46 0 0 Z " fill="#FAFAFA" transform="translate(586,1042)"/>
<path d="M0 0 C21.4 0 21.4 0 28.875 4.875 C33.13546257 9.13546257 34.49367932 12.73487544 34.6875 18.75 C34.56141941 25.41826249 32.89023601 28.6674095 28.23828125 33.328125 C24.30530182 36.26584785 20.79314072 37.25513056 15.91796875 37.1953125 C14.65762817 37.18781982 14.65762817 37.18781982 13.37182617 37.18017578 C12.32099854 37.16196777 11.2701709 37.14375977 10.1875 37.125 C6.825625 37.08375 3.46375 37.0425 0 37 C0 24.79 0 12.58 0 0 Z " fill="#ECECEC" transform="translate(535,1158)"/>
<path d="M0 0 C9 0 9 0 11.21508789 1.8359375 C11.71258545 2.67382812 12.21008301 3.51171875 12.72265625 4.375 C13.28017578 5.27734375 13.83769531 6.1796875 14.41210938 7.109375 C14.95673828 8.06328125 15.50136719 9.0171875 16.0625 10 C16.64193359 10.95390625 17.22136719 11.9078125 17.81835938 12.890625 C19.24151665 15.24295107 20.62474894 17.61934902 22 20 C22.33 13.4 22.66 6.8 23 0 C25.31 0 27.62 0 30 0 C30 11.88 30 23.76 30 36 C23 36 23 36 20.77734375 33.9453125 C20.17019531 33.01460937 19.56304688 32.08390625 18.9375 31.125 C17.94556641 29.63033203 17.94556641 29.63033203 16.93359375 28.10546875 C16.29550781 27.08066406 15.65742187 26.05585937 15 25 C14.08927734 23.57107422 14.08927734 23.57107422 13.16015625 22.11328125 C9 15.40808824 9 15.40808824 9 13 C8.34 13 7.68 13 7 13 C7 20.59 7 28.18 7 36 C4.69 36 2.38 36 0 36 C0 24.12 0 12.24 0 0 Z " fill="#F7F7F7" transform="translate(644,1159)"/>
<path d="M0 0 C4.48841123 4.23386995 8.18659924 8.92300503 11.9375 13.8125 C12.53240234 14.58142578 13.12730469 15.35035156 13.74023438 16.14257812 C14.92151638 17.67243515 16.09915922 19.20510984 17.27294922 20.74072266 C18.43496714 22.26084053 19.60339496 23.77607762 20.77783203 25.28662109 C21.60130127 26.35710693 21.60130127 26.35710693 22.44140625 27.44921875 C23.18112671 28.40380981 23.18112671 28.40380981 23.93579102 29.37768555 C25 31 25 31 25 33 C11.64308682 34.78976008 11.64308682 34.78976008 7.26074219 31.82226562 C3.94019286 28.62097988 1.4191131 24.90779809 -1 21 C-1.99 21.86625 -2.98 22.7325 -4 23.625 C-6.68326835 25.90632127 -9.3726812 28.177331 -12.125 30.375 C-13.05699219 31.12910156 -13.05699219 31.12910156 -14.0078125 31.8984375 C-16.47589845 33.26314385 -18.2224686 33.20182754 -21 33 C-20.21625 32.01 -19.4325 31.02 -18.625 30 C-11.5821377 20.61509323 -5.53478961 10.33160727 0 0 Z " fill="#F2F2F2" transform="translate(645,1078)"/>
<path d="M0 0 C2.64 0 5.28 0 8 0 C17 20.73786408 17 20.73786408 17 25 C17.66 25 18.32 25 19 25 C19.12689209 24.27530518 19.25378418 23.55061035 19.38452148 22.80395508 C19.98109622 20.08612055 20.80140772 17.71082227 21.84765625 15.13671875 C22.20537109 14.25048828 22.56308594 13.36425781 22.93164062 12.45117188 C23.30482422 11.53916016 23.67800781 10.62714844 24.0625 9.6875 C24.43955078 8.75615234 24.81660156 7.82480469 25.20507812 6.86523438 C26.13283125 4.57521083 27.06458001 2.28690004 28 0 C30.64 0 33.28 0 36 0 C35.01443276 5.48545977 33.5770914 10.35303309 31.21484375 15.3984375 C29.68424558 18.67618148 28.24414293 21.99076187 26.8125 25.3125 C26.30332031 26.48425781 25.79414062 27.65601563 25.26953125 28.86328125 C23.87897533 32.08984719 23.87897533 32.08984719 23 36 C20.03 36 17.06 36 14 36 C12.32255053 32.0044671 10.66014823 28.0027429 9 24 C8.63036133 23.11054687 8.26072266 22.22109375 7.87988281 21.3046875 C6.64526043 18.32969381 5.41594957 15.35254733 4.1875 12.375 C3.57370483 10.89845947 3.57370483 10.89845947 2.94750977 9.39208984 C2.56651123 8.46605957 2.1855127 7.5400293 1.79296875 6.5859375 C1.4477417 5.7511084 1.10251465 4.9162793 0.74682617 4.05615234 C0 2 0 2 0 0 Z " fill="#F0F0F0" transform="translate(604,1159)"/>
<path d="M0 0 C7.92 0 15.84 0 24 0 C24 1.98 24 3.96 24 6 C18.39 6 12.78 6 7 6 C7 8.97 7 11.94 7 15 C11.62 15 16.24 15 21 15 C21 16.98 21 18.96 21 21 C16.38 21 11.76 21 7 21 C7 23.97 7 26.94 7 30 C12.61 30 18.22 30 24 30 C24 31.98 24 33.96 24 36 C16.08 36 8.16 36 0 36 C0 24.12 0 12.24 0 0 Z " fill="#F9F9F9" transform="translate(680,1159)"/>
<path d="M0 0 C7.92 0 15.84 0 24 0 C24 1.98 24 3.96 24 6 C18.39 6 12.78 6 7 6 C7 8.97 7 11.94 7 15 C11.62 15 16.24 15 21 15 C21 16.98 21 18.96 21 21 C16.38 21 11.76 21 7 21 C7 23.97 7 26.94 7 30 C12.61 30 18.22 30 24 30 C24 31.98 24 33.96 24 36 C16.08 36 8.16 36 0 36 C0 24.12 0 12.24 0 0 Z " fill="#F7F7F7" transform="translate(575,1159)"/>
<path d="M0 0 C12 0 12 0 15.6875 2.4375 C18.6987166 6.19706628 19.37680381 10.26804519 19 15 C17.33812581 19.15468549 14.89186486 21.81082602 11 24 C7.37 24 3.74 24 0 24 C0 16.08 0 8.16 0 0 Z " fill="#141414" transform="translate(543,1165)"/>
<path d="M0 0 C9.57 0 19.14 0 29 0 C29 1.98 29 3.96 29 6 C25.37 6 21.74 6 18 6 C18 15.9 18 25.8 18 36 C15.69 36 13.38 36 11 36 C11 26.1 11 16.2 11 6 C7.37 6 3.74 6 0 6 C0 4.02 0 2.04 0 0 Z " fill="#F7F7F7" transform="translate(709,1159)"/>
<path d="M0 0 C3.407849 2.41389304 4.75297335 3.83897476 5.625 7.9375 C4.76419058 12.15546616 3.16041435 14.11440429 0 17 C-4.1715422 17.97631839 -5.68673219 17.18564019 -9.375 15 C-12.43861829 11.49872195 -12.43861829 11.49872195 -12.625 7.9375 C-12 4 -12 4 -10.5 1.5 C-7.01402996 -0.59158203 -3.89784294 -0.8876276 0 0 Z " fill="#D8670B" transform="translate(576,1205)"/>
<path d="M0 0 C2.4375 0.9375 2.4375 0.9375 4 3 C4.95699764 6.0659369 5.32518258 8.79863356 5 12 C2.9375 15.0625 2.9375 15.0625 0 17 C-3.97137281 17.7446324 -5.44099683 17.37266878 -8.8125 15.125 C-11.6352844 12.38286658 -11.94570129 11.58642602 -12.3125 7.625 C-12 4 -12 4 -10.5 1.5625 C-6.95899391 -0.6506288 -4.06650153 -0.65130825 0 0 Z " fill="#D5660C" transform="translate(677,1205)"/>
<path d="M0 0 C1.32 0 2.64 0 4 0 C5.484375 1.75 5.484375 1.75 6.75 4 C7.17796875 4.7425 7.6059375 5.485 8.046875 6.25 C8.36140625 6.8275 8.6759375 7.405 9 8 C9.33 5.36 9.66 2.72 10 0 C11.32 0 12.64 0 14 0 C14 5.28 14 10.56 14 16 C12.35 16 10.7 16 9 16 C7.41796875 14.25 7.41796875 14.25 6.1875 12 C5.55908203 10.88625 5.55908203 10.88625 4.91796875 9.75 C4.61503906 9.1725 4.31210937 8.595 4 8 C3.67 10.64 3.34 13.28 3 16 C2.01 16 1.02 16 0 16 C0 10.72 0 5.44 0 0 Z " fill="#D66509" transform="translate(691,1205)"/>
<path d="M0 0 C1.32 0 2.64 0 4 0 C4.33 3.96 4.66 7.92 5 12 C6.65 12.33 8.3 12.66 10 13 C10.33 8.71 10.66 4.42 11 0 C11.99 0 12.98 0 14 0 C14.05402274 2.10388569 14.09280256 4.20816714 14.125 6.3125 C14.14820313 7.48425781 14.17140625 8.65601563 14.1953125 9.86328125 C14 13 14 13 12 16 C9.94140625 16.43359375 9.94140625 16.43359375 7.5625 16.4375 C6.38880859 16.46650391 6.38880859 16.46650391 5.19140625 16.49609375 C3 16 3 16 1.2265625 14.36328125 C-0.35064918 11.32438613 -0.2985492 9.15550885 -0.1875 5.75 C-0.14689453 4.13351562 -0.14689453 4.13351562 -0.10546875 2.484375 C-0.07066406 1.66453125 -0.03585937 0.8446875 0 0 Z " fill="#D4650A" transform="translate(608,1205)"/>
<path d="M0 0 C2.01822917 0.06510417 4.03645833 0.13020833 6.0546875 0.1953125 C6.3846875 1.5153125 6.7146875 2.8353125 7.0546875 4.1953125 C4.7446875 3.8653125 2.4346875 3.5353125 0.0546875 3.1953125 C0.0546875 4.1853125 0.0546875 5.1753125 0.0546875 6.1953125 C1.199375 6.3809375 1.199375 6.3809375 2.3671875 6.5703125 C5.0546875 7.1953125 5.0546875 7.1953125 8.0546875 9.1953125 C7.7421875 12.0703125 7.7421875 12.0703125 7.0546875 15.1953125 C3.204377 17.76218617 1.46898987 17.02819974 -2.9453125 16.1953125 C-2.9453125 14.8753125 -2.9453125 13.5553125 -2.9453125 12.1953125 C-0.6353125 12.5253125 1.6746875 12.8553125 4.0546875 13.1953125 C3.7246875 12.2053125 3.3946875 11.2153125 3.0546875 10.1953125 C-0.44826121 8.47963589 -0.44826121 8.47963589 -3.9453125 7.1953125 C-4.0703125 4.8203125 -4.0703125 4.8203125 -3.9453125 2.1953125 C-1.9453125 0.1953125 -1.9453125 0.1953125 0 0 Z " fill="#DF6909" transform="translate(716.9453125,1204.8046875)"/>
<path d="M0 0 C2.01822917 0.06510417 4.03645833 0.13020833 6.0546875 0.1953125 C6.0546875 1.5153125 6.0546875 2.8353125 6.0546875 4.1953125 C3.7446875 3.8653125 1.4346875 3.5353125 -0.9453125 3.1953125 C0.45321662 5.99237075 2.19120608 6.10446243 5.0546875 7.1953125 C6.0446875 7.8553125 7.0346875 8.5153125 8.0546875 9.1953125 C8.4921875 11.6328125 8.4921875 11.6328125 8.0546875 14.1953125 C6.4921875 16.0703125 6.4921875 16.0703125 4.0546875 17.1953125 C0.3046875 16.8828125 0.3046875 16.8828125 -2.9453125 16.1953125 C-3.2753125 15.2053125 -3.6053125 14.2153125 -3.9453125 13.1953125 C-1.3053125 13.1953125 1.3346875 13.1953125 4.0546875 13.1953125 C4.0546875 12.2053125 4.0546875 11.2153125 4.0546875 10.1953125 C3.1059375 10.0715625 2.1571875 9.9478125 1.1796875 9.8203125 C-1.9453125 9.1953125 -1.9453125 9.1953125 -3.9453125 7.1953125 C-4.1953125 4.6953125 -4.1953125 4.6953125 -3.9453125 2.1953125 C-1.9453125 0.1953125 -1.9453125 0.1953125 0 0 Z " fill="#D3650B" transform="translate(547.9453125,1204.8046875)"/>
<path d="M0 0 C4.29 0 8.58 0 13 0 C13 0.99 13 1.98 13 3 C11.35 3 9.7 3 8 3 C8 7.29 8 11.58 8 16 C6.68 16 5.36 16 4 16 C4 11.71 4 7.42 4 3 C2.68 3 1.36 3 0 3 C0 2.01 0 1.02 0 0 Z " fill="#D8670B" transform="translate(631,1205)"/>
<path d="M0 0 C12.54 0 25.08 0 38 0 C38 0.33 38 0.66 38 1 C35.36 1 32.72 1 30 1 C30 1.66 30 2.32 30 3 C29.01 3 28.02 3 27 3 C26.34 3.66 25.68 4.32 25 5 C25 3.68 25 2.36 25 1 C17.08 1 9.16 1 1 1 C1 12.88 1 24.76 1 37 C0.67 37 0.34 37 0 37 C0 24.79 0 12.58 0 0 Z " fill="#818181" transform="translate(574,1158)"/>
<path d="M0 0 C0.66 0.66 1.32 1.32 2 2 C-3.69685404 13.2270448 -10.0909756 23.16621302 -18 33 C-17.01 33.66 -16.02 34.32 -15 35 C-17.64 35.33 -20.28 35.66 -23 36 C-22.195625 34.948125 -21.39125 33.89625 -20.5625 32.8125 C-12.73274093 22.3358011 -5.82582593 11.73294245 0 0 Z " fill="#33271B" transform="translate(643,1077)"/>
<path d="M0 0 C2.5 0.25 2.5 0.25 4.5 2.25 C4.75 5.25 4.75 5.25 4.5 8.25 C2.5 10.25 2.5 10.25 0 10.5 C-2.5 10.25 -2.5 10.25 -4.5 8.25 C-4.75 5.25 -4.75 5.25 -4.5 2.25 C-2.5 0.25 -2.5 0.25 0 0 Z " fill="#1D130B" transform="translate(673.5,1207.75)"/>
<path d="M0 0 C2.5 0.25 2.5 0.25 4.5 2.25 C4.75 5.25 4.75 5.25 4.5 8.25 C2.5 10.25 2.5 10.25 0 10.5 C-2.5 10.25 -2.5 10.25 -4.5 8.25 C-4.75 5.25 -4.75 5.25 -4.5 2.25 C-2.5 0.25 -2.5 0.25 0 0 Z " fill="#1B120B" transform="translate(572.5,1207.75)"/>
<path d="M0 0 C1.32 0 2.64 0 4 0 C5.32 2.31 6.64 4.62 8 7 C7.01 7.99 6.02 8.98 5 10 C4.67 9.34 4.34 8.68 4 8 C3.67 10.64 3.34 13.28 3 16 C2.01 16 1.02 16 0 16 C0 10.72 0 5.44 0 0 Z " fill="#E36B0A" transform="translate(691,1205)"/>
<path d="M0 0 C0.99 0 1.98 0 3 0 C3 4.29 3 8.58 3 13 C5.31 13 7.62 13 10 13 C10 13.99 10 14.98 10 16 C6.7 16 3.4 16 0 16 C0 10.72 0 5.44 0 0 Z " fill="#E96D0A" transform="translate(590,1205)"/>
<path d="M0 0 C1.32 0 2.64 0 4 0 C4 5.28 4 10.56 4 16 C2.68 16 1.36 16 0 16 C0 10.72 0 5.44 0 0 Z " fill="#C35C0C" transform="translate(652,1205)"/>
<path d="M0 0 C2 1.125 2 1.125 4 3 C4.5625 5.875 4.5625 5.875 4 9 C1.875 11.875 1.875 11.875 -1 14 C-4.3125 14.3125 -4.3125 14.3125 -7 14 C-5.68 13.67 -4.36 13.34 -3 13 C-3 12.34 -3 11.68 -3 11 C-3.66 10.67 -4.32 10.34 -5 10 C-4.360625 9.835 -3.72125 9.67 -3.0625 9.5 C-0.83880759 8.218214 -0.83880759 8.218214 -0.51171875 6.0859375 C-0.2724022 4.06424845 -0.13106972 2.03158061 0 0 Z " fill="#CE620A" transform="translate(678,1208)"/>
<path d="M0 0 C0.33 0 0.66 0 1 0 C1.061875 1.258125 1.12375 2.51625 1.1875 3.8125 C1.3842028 6.00882102 1.3842028 6.00882102 2 8 C4.44309577 9.91744593 4.44309577 9.91744593 7 11 C7 11.66 7 12.32 7 13 C1.66666667 13.35555556 1.66666667 13.35555556 -0.875 12 C-2.75321874 8.66094446 -2.30079454 5.79001126 -2 2 C-1.34 1.34 -0.68 0.68 0 0 Z " fill="#EB6C06" transform="translate(567,1208)"/>
<path d="M0 0 C5.61 0 11.22 0 17 0 C14.41789374 5.45111321 11.61861108 10.17518523 8 15 C7.67 14.01 7.34 13.02 7 12 C9.05228661 8.13588542 11.55952041 4.63931167 14 1 C9.38 1 4.76 1 0 1 C0 0.67 0 0.34 0 0 Z " fill="#58514B" transform="translate(600,1098)"/>
<path d="M0 0 C0.66 0.33 1.32 0.66 2 1 C2.28875 1.969375 2.5775 2.93875 2.875 3.9375 C3.6889291 7.10056957 3.6889291 7.10056957 6.125 8.375 C6.74375 8.58125 7.3625 8.7875 8 9 C8 9.66 8 10.32 8 11 C2.63157895 11.35789474 2.63157895 11.35789474 0.125 9.9375 C-1.59944167 6.96762823 -1.24840147 4.35341985 -1 1 C-0.67 0.67 -0.34 0.34 0 0 Z " fill="#E96B06" transform="translate(667,1210)"/>
<path d="M0 0 C0.99 0 1.98 0 3 0 C3 4.29 3 8.58 3 13 C2.01 13.33 1.02 13.66 0 14 C0 9.38 0 4.76 0 0 Z " fill="#EC6D08" transform="translate(619,1205)"/>
<path d="M0 0 C0.66 0.33 1.32 0.66 2 1 C-0.64 3.64 -3.28 6.28 -6 9 C-5.67 9.66 -5.34 10.32 -5 11 C-6.28524261 11.86380259 -7.57842419 12.71580369 -8.875 13.5625 C-9.59429688 14.03816406 -10.31359375 14.51382812 -11.0546875 15.00390625 C-11.69664062 15.33261719 -12.33859375 15.66132812 -13 16 C-13.66 15.67 -14.32 15.34 -15 15 C-10.05 10.05 -5.1 5.1 0 0 Z " fill="#D2680C" transform="translate(593,1131)"/>
<path d="M0 0 C-1.98 0.99 -1.98 0.99 -4 2 C-1.03 2.495 -1.03 2.495 2 3 C2 3.33 2 3.66 2 4 C-6.91 4.99 -6.91 4.99 -16 6 C-11.44615385 1.44615385 -11.44615385 1.44615385 -8 0.1875 C-7.34 -0.06644531 -6.68 -0.32039062 -6 -0.58203125 C-3.6781392 -1.06726388 -2.23209393 -0.73240582 0 0 Z " fill="#C4630F" transform="translate(589,998)"/>
<path d="M0 0 C-0.598125 0.28875 -1.19625 0.5775 -1.8125 0.875 C-4.19327792 2.04742026 -4.19327792 2.04742026 -7 4 C-7.66 4 -8.32 4 -9 4 C-9.33 6.31 -9.66 8.62 -10 11 C-10.33 11 -10.66 11 -11 11 C-11.35820896 3.71641791 -11.35820896 3.71641791 -10 1 C-6.72032242 -0.63983879 -3.62861311 -0.17845638 0 0 Z " fill="#CC6109" transform="translate(575,1206)"/>
<path d="M0 0 C2.97 0.495 2.97 0.495 6 1 C5.34 1.66 4.68 2.32 4 3 C4.99 3.66 5.98 4.32 7 5 C4.69 4.67 2.38 4.34 0 4 C0 2.68 0 1.36 0 0 Z " fill="#B1580E" transform="translate(714,1217)"/>
<path d="M0 0 C0.66 0.66 1.32 1.32 2 2 C0.35 5.3 -1.3 8.6 -3 12 C-3.66 11.67 -4.32 11.34 -5 11 C-4.731875 10.484375 -4.46375 9.96875 -4.1875 9.4375 C-2.67650593 6.33598585 -1.34427274 3.17737194 0 0 Z " fill="#452E1B" transform="translate(643,1077)"/>
<path d="M0 0 C2.05078125 0.03255208 4.1015625 0.06510417 6.15234375 0.09765625 C6.48234375 1.41765625 6.81234375 2.73765625 7.15234375 4.09765625 C0.52734375 3.34765625 0.52734375 3.34765625 -2.84765625 1.09765625 C-1.84765625 0.09765625 -1.84765625 0.09765625 0 0 Z " fill="#C46310" transform="translate(716.84765625,1204.90234375)"/>
<path d="M0 0 C0.66 0 1.32 0 2 0 C1.34 1.32 0.68 2.64 0 4 C0.99 4.66 1.98 5.32 3 6 C0.36 6.33 -2.28 6.66 -5 7 C-4.21654285 5.82780457 -3.42297164 4.66236332 -2.625 3.5 C-2.18414063 2.8503125 -1.74328125 2.200625 -1.2890625 1.53125 C-0.65097656 0.77328125 -0.65097656 0.77328125 0 0 Z " fill="#3E2F22" transform="translate(625,1106)"/>
<path d="M0 0 C2.05078125 0.03255208 4.1015625 0.06510417 6.15234375 0.09765625 C6.15234375 1.41765625 6.15234375 2.73765625 6.15234375 4.09765625 C2.41746598 3.59967255 0.3399674 3.22273869 -2.84765625 1.09765625 C-1.84765625 0.09765625 -1.84765625 0.09765625 0 0 Z " fill="#C86411" transform="translate(547.84765625,1204.90234375)"/>
<path d="M0 0 C0.33 0.66 0.66 1.32 1 2 C1.66 2.33 2.32 2.66 3 3 C1 5 1 5 -2.125 5.125 C-3.548125 5.063125 -3.548125 5.063125 -5 5 C-3.68 4.67 -2.36 4.34 -1 4 C-1 3.34 -1 2.68 -1 2 C-1.99 1.67 -2.98 1.34 -4 1 C-2.68 0.67 -1.36 0.34 0 0 Z " fill="#B75B0D" transform="translate(575,1217)"/>
<path d="M0 0 C3.96 0 7.92 0 12 0 C12 0.33 12 0.66 12 1 C9.36 1 6.72 1 4 1 C4 1.66 4 2.32 4 3 C2.68 3 1.36 3 0 3 C0 2.01 0 1.02 0 0 Z " fill="#343434" transform="translate(600,1158)"/>
</svg>
